# xmcd
#
# Track frame offsets:
#	182
#	23510
#	44457
#	60112
#	90747
#	125647
#	143700
#	159225
#	173200
#	193315
#	215815
#	231795
#	257425
#	274677
#	289625
#	312160
#	331850
#
# Disc length: 4756 seconds
#
# Revision: 20
# Processed by: cddbd v1.5.2PL0 Copyright (c) Steve Scherf et al.
# Submitted via: audiograbber 1.83.01
#
DISCID=eb129211
DTITLE=Fleetwood Mac - The Dance
DYEAR=1997
DGENRE=Rock
TTITLE0=The Chain
TTITLE1=Dreams
TTITLE2=Everywhere
TTITLE3=Rhiannon
TTITLE4=I'm So Afraid
TTITLE5=Temporary One
TTITLE6=Bleed to Love Her
TTITLE7=Big Love
TTITLE8=Landslide
TTITLE9=Say You Love Me
TTITLE10=My Little Demon
TTITLE11=Silver Springs
TTITLE12=You Make Loving Fun
TTITLE13=Sweet Girl
TTITLE14=Go Your Own Way
TTITLE15=Tusk
TTITLE16=Don't Stop
EXTD=
EXTT0=
EXTT1=
EXTT2=
EXTT3=
EXTT4=
EXTT5=
EXTT6=
EXTT7=
EXTT8=
EXTT9=
EXTT10=
EXTT11=
EXTT12=
EXTT13=
EXTT14=
EXTT15=
EXTT16=
PLAYORDER=
